<svg xmlns="http://www.w3.org/2000/svg" xmlns:xlink="http://www.w3.org/1999/xlink" width="80" zoomAndPan="magnify" viewBox="0 0 60 60" height="80" preserveAspectRatio="xMidYMid meet" version="1.0"><defs><clipPath id="08d32444e6"><path d="M 6.871094 6 L 53.371094 6 L 53.371094 54 L 6.871094 54 Z M 6.871094 6 " clip-rule="nonzero"/></clipPath></defs><g clip-path="url(#08d32444e6)"><path fill="#231f20" d="M 52.917969 12.238281 L 38.617188 7.011719 C 38.609375 7.011719 38.597656 7.011719 38.589844 7.011719 C 38.523438 6.992188 38.445312 6.972656 38.367188 6.972656 C 38.367188 6.972656 38.359375 6.972656 38.347656 6.972656 C 38.269531 6.972656 38.195312 7.003906 38.125 7.03125 C 38.105469 7.03125 38.089844 7.050781 38.078125 7.058594 C 38.050781 7.070312 38.03125 7.078125 38 7.097656 L 26.390625 15.109375 L 7.847656 6.109375 C 7.632812 6.003906 7.394531 6.023438 7.191406 6.148438 C 7 6.273438 6.871094 6.484375 6.871094 6.714844 L 6.871094 44.164062 C 6.871094 44.421875 7.015625 44.652344 7.257812 44.765625 L 26.148438 53.929688 C 26.148438 53.929688 26.160156 53.929688 26.167969 53.929688 C 26.253906 53.964844 26.351562 53.996094 26.449219 53.996094 C 26.546875 53.996094 26.59375 53.976562 26.671875 53.957031 C 26.691406 53.957031 26.710938 53.9375 26.726562 53.929688 C 26.757812 53.917969 26.785156 53.910156 26.804688 53.890625 C 26.835938 53.871094 26.855469 53.851562 26.882812 53.832031 C 26.882812 53.832031 26.902344 53.832031 26.910156 53.8125 L 38.523438 43.144531 L 52.417969 49.429688 C 52.503906 49.46875 52.601562 49.488281 52.699219 49.488281 C 52.792969 49.488281 52.957031 49.449219 53.0625 49.382812 C 53.257812 49.257812 53.371094 49.046875 53.371094 48.816406 L 53.371094 12.871094 C 53.371094 12.585938 53.199219 12.335938 52.929688 12.238281 Z M 25.765625 52.25 L 8.234375 43.742188 L 8.234375 7.796875 L 25.765625 16.308594 Z M 37.703125 42.0625 L 27.113281 51.789062 L 27.113281 16.238281 L 37.703125 8.941406 L 37.703125 42.070312 Z M 52.011719 47.777344 L 39.0625 41.917969 L 39.0625 8.613281 L 52.011719 13.34375 Z M 11.753906 27.933594 L 19.890625 31.886719 C 20.179688 32.027344 20.488281 32.097656 20.796875 32.097656 C 21.105469 32.097656 21.558594 31.992188 21.886719 31.78125 C 22.496094 31.40625 22.859375 30.753906 22.859375 30.035156 L 22.859375 19.828125 C 22.859375 19.050781 22.40625 18.320312 21.703125 17.976562 L 13.566406 14.023438 C 12.917969 13.707031 12.175781 13.746094 11.558594 14.128906 C 10.953125 14.503906 10.585938 15.15625 10.585938 15.875 L 10.585938 26.082031 C 10.585938 26.859375 11.039062 27.585938 11.742188 27.933594 Z M 11.945312 15.875 C 11.945312 15.625 12.070312 15.40625 12.28125 15.28125 C 12.398438 15.203125 12.523438 15.175781 12.660156 15.175781 C 12.792969 15.175781 12.871094 15.203125 12.96875 15.25 L 21.105469 19.203125 C 21.347656 19.320312 21.5 19.570312 21.5 19.835938 L 21.5 30.042969 C 21.5 30.292969 21.375 30.511719 21.164062 30.636719 C 20.953125 30.773438 20.703125 30.78125 20.480469 30.675781 L 12.339844 26.722656 C 12.097656 26.609375 11.945312 26.359375 11.945312 26.089844 Z M 21.414062 38.40625 C 21.300781 38.648438 21.058594 38.792969 20.808594 38.792969 C 20.554688 38.792969 20.605469 38.773438 20.507812 38.722656 L 12.371094 34.773438 C 12.03125 34.609375 11.898438 34.207031 12.0625 33.871094 C 12.226562 33.535156 12.628906 33.402344 12.96875 33.5625 L 21.105469 37.515625 C 21.445312 37.679688 21.578125 38.082031 21.414062 38.417969 Z M 21.414062 44.296875 C 21.300781 44.535156 21.058594 44.679688 20.808594 44.679688 C 20.554688 44.679688 20.605469 44.660156 20.507812 44.613281 L 12.371094 40.660156 C 12.03125 40.5 11.898438 40.097656 12.0625 39.761719 C 12.226562 39.425781 12.628906 39.289062 12.96875 39.453125 L 21.105469 43.40625 C 21.445312 43.566406 21.578125 43.972656 21.414062 44.308594 Z M 41.734375 38.457031 L 48.871094 41.066406 C 48.945312 41.09375 49.023438 41.101562 49.101562 41.101562 C 49.234375 41.101562 49.371094 41.066406 49.488281 40.976562 C 49.667969 40.855469 49.777344 40.644531 49.777344 40.421875 L 49.777344 33.082031 C 49.777344 32.796875 49.601562 32.546875 49.332031 32.449219 L 42.195312 29.839844 C 41.984375 29.765625 41.753906 29.792969 41.570312 29.917969 C 41.386719 30.042969 41.28125 30.253906 41.28125 30.476562 L 41.28125 37.8125 C 41.28125 38.101562 41.453125 38.351562 41.722656 38.445312 Z M 42.648438 31.453125 L 48.425781 33.5625 L 48.425781 39.460938 L 42.648438 37.351562 Z M 41.90625 25.8125 C 42.03125 25.46875 42.425781 25.285156 42.773438 25.410156 L 48.761719 27.597656 C 49.109375 27.722656 49.292969 28.113281 49.167969 28.460938 C 49.070312 28.730469 48.8125 28.902344 48.53125 28.902344 C 48.253906 28.902344 48.378906 28.890625 48.300781 28.863281 L 42.3125 26.675781 C 41.964844 26.550781 41.78125 26.160156 41.90625 25.8125 Z M 41.90625 20.585938 C 42.03125 20.238281 42.425781 20.058594 42.773438 20.183594 L 48.761719 22.371094 C 49.109375 22.492188 49.292969 22.886719 49.167969 23.234375 C 49.070312 23.5 48.8125 23.675781 48.53125 23.675781 C 48.253906 23.675781 48.378906 23.664062 48.300781 23.636719 L 42.3125 21.449219 C 41.964844 21.324219 41.78125 20.929688 41.90625 20.585938 Z M 41.90625 15.558594 C 42.03125 15.214844 42.425781 15.03125 42.773438 15.15625 L 48.761719 17.34375 C 49.109375 17.46875 49.292969 17.859375 49.167969 18.207031 C 49.070312 18.476562 48.8125 18.648438 48.53125 18.648438 C 48.253906 18.648438 48.378906 18.636719 48.300781 18.609375 L 42.3125 16.421875 C 41.964844 16.296875 41.78125 15.902344 41.90625 15.558594 Z M 29.523438 24.546875 C 29.3125 24.238281 29.390625 23.816406 29.699219 23.605469 L 34.355469 20.394531 C 34.664062 20.183594 35.089844 20.257812 35.300781 20.566406 C 35.511719 20.871094 35.4375 21.296875 35.128906 21.507812 L 30.46875 24.71875 C 30.355469 24.796875 30.21875 24.84375 30.085938 24.84375 C 29.871094 24.84375 29.660156 24.738281 29.523438 24.554688 Z M 29.523438 31.128906 C 29.3125 30.820312 29.390625 30.398438 29.699219 30.1875 L 34.355469 26.972656 C 34.664062 26.761719 35.089844 26.839844 35.300781 27.144531 C 35.511719 27.453125 35.4375 27.875 35.128906 28.085938 L 30.46875 31.300781 C 30.355469 31.375 30.21875 31.425781 30.085938 31.425781 C 29.871094 31.425781 29.660156 31.320312 29.523438 31.136719 Z M 29.523438 38.492188 C 29.3125 38.1875 29.390625 37.765625 29.699219 37.554688 L 34.355469 34.339844 C 34.664062 34.128906 35.089844 34.207031 35.300781 34.511719 C 35.511719 34.820312 35.4375 35.242188 35.128906 35.453125 L 30.46875 38.667969 C 30.355469 38.742188 30.21875 38.792969 30.085938 38.792969 C 29.871094 38.792969 29.660156 38.6875 29.523438 38.503906 Z M 29.523438 38.492188 " fill-opacity="1" fill-rule="nonzero"/></g></svg>