<svg xmlns="http://www.w3.org/2000/svg" xmlns:xlink="http://www.w3.org/1999/xlink" width="80" zoomAndPan="magnify" viewBox="0 0 60 60" height="80" preserveAspectRatio="xMidYMid meet" version="1.0"><defs><clipPath id="86db4a2b10"><path d="M 7.425781 7.425781 L 52.425781 7.425781 L 52.425781 52.425781 L 7.425781 52.425781 Z M 7.425781 7.425781 " clip-rule="nonzero"/></clipPath></defs><g clip-path="url(#86db4a2b10)"><path fill="#000000" d="M 47.066406 30.996094 L 43.855469 30.996094 L 43.855469 30.074219 C 43.855469 28.222656 42.914062 26.59375 41.488281 25.628906 L 41.46875 25.617188 L 30.996094 18.636719 L 30.996094 13.855469 L 34.210938 13.855469 C 34.800781 13.855469 35.28125 13.375 35.28125 12.78125 C 35.28125 12.191406 34.800781 11.710938 34.210938 11.710938 L 30.996094 11.710938 L 30.996094 8.496094 C 30.996094 7.90625 30.515625 7.425781 29.925781 7.425781 C 29.332031 7.425781 28.855469 7.90625 28.855469 8.496094 L 28.855469 11.710938 L 25.640625 11.710938 C 25.046875 11.710938 24.566406 12.191406 24.566406 12.78125 C 24.566406 13.375 25.046875 13.855469 25.640625 13.855469 L 28.855469 13.855469 L 28.855469 18.636719 L 18.382812 25.617188 C 16.933594 26.59375 15.996094 28.222656 15.996094 30.074219 L 15.996094 30.996094 L 12.78125 30.996094 C 9.824219 30.996094 7.425781 33.394531 7.425781 36.355469 L 7.425781 47.066406 C 7.425781 50.027344 9.824219 52.425781 12.78125 52.425781 L 47.066406 52.425781 C 50.027344 52.425781 52.425781 50.027344 52.425781 47.066406 L 52.425781 36.355469 C 52.425781 33.394531 50.027344 30.996094 47.066406 30.996094 Z M 9.566406 47.066406 L 9.566406 36.355469 C 9.566406 34.578125 11.007812 33.140625 12.78125 33.140625 L 15.996094 33.140625 L 15.996094 50.28125 L 12.78125 50.28125 C 11.007812 50.28125 9.566406 48.84375 9.566406 47.066406 Z M 18.140625 30.074219 C 18.140625 28.964844 18.703125 27.984375 19.558594 27.410156 L 19.570312 27.402344 L 29.925781 20.496094 L 40.277344 27.398438 C 41.148438 27.984375 41.710938 28.960938 41.710938 30.074219 L 41.710938 50.28125 L 35.28125 50.28125 L 35.28125 42.78125 C 35.28125 39.824219 32.882812 37.425781 29.925781 37.425781 C 26.964844 37.425781 24.566406 39.824219 24.566406 42.78125 L 24.566406 50.28125 L 18.140625 50.28125 Z M 26.710938 50.28125 L 26.710938 42.78125 C 26.710938 41.007812 28.148438 39.566406 29.925781 39.566406 C 31.699219 39.566406 33.140625 41.007812 33.140625 42.78125 L 33.140625 50.28125 Z M 50.28125 47.066406 C 50.28125 48.84375 48.84375 50.28125 47.066406 50.28125 L 43.855469 50.28125 L 43.855469 33.140625 L 47.066406 33.140625 C 48.84375 33.140625 50.28125 34.578125 50.28125 36.355469 Z M 50.28125 47.066406 " fill-opacity="1" fill-rule="nonzero"/></g></svg>