<svg xmlns="http://www.w3.org/2000/svg" xmlns:xlink="http://www.w3.org/1999/xlink" width="80" zoomAndPan="magnify" viewBox="0 0 60 60" height="80" preserveAspectRatio="xMidYMid meet" version="1.0"><defs><clipPath id="9a7ec11b65"><path d="M 10.710938 39 L 48.960938 39 L 48.960938 54 L 10.710938 54 Z M 10.710938 39 " clip-rule="nonzero"/></clipPath></defs><path stroke-linecap="round" transform="matrix(0.179352, -0.765824, 0.759541, 0.180836, 9.513329, 38.72684)" fill="none" stroke-linejoin="round" d="M 37.037482 18.710121 C 37.038398 19.167624 36.997212 19.619639 36.904263 20.068449 C 36.816145 20.516117 36.684775 20.953428 36.509003 21.375508 C 36.333231 21.797588 36.12157 22.197286 35.869188 22.575742 C 35.611974 22.955338 35.322552 23.30654 35.000921 23.629347 C 34.679291 23.952154 34.324301 24.241694 33.945616 24.495687 C 33.56693 24.74968 33.164549 24.968125 32.741002 25.140139 C 32.323436 25.315883 31.884706 25.445196 31.436773 25.535538 C 30.98884 25.625881 30.535386 25.671241 30.081243 25.670478 C 29.622268 25.670855 29.172265 25.622828 28.723874 25.53842 C 28.274333 25.449141 27.839745 25.315187 27.416432 25.142571 C 26.991968 24.965084 26.594422 24.750383 26.21298 24.495878 C 25.831539 24.241374 25.482996 23.953387 25.157691 23.634198 C 24.836066 23.308997 24.548491 22.955185 24.291285 22.578772 C 24.037759 22.196348 23.825415 21.793913 23.649421 21.37261 C 23.473427 20.951306 23.344596 20.513722 23.254415 20.067012 C 23.164235 19.620302 23.118687 19.168196 23.117771 18.710694 C 23.121686 18.252051 23.162872 17.800035 23.255821 17.351226 C 23.343939 16.903557 23.475309 16.466247 23.651081 16.044166 C 23.822021 15.623227 24.038514 15.222388 24.290896 14.843933 C 24.54811 14.464336 24.837532 14.113134 25.159163 13.790327 C 25.480793 13.467521 25.835783 13.17798 26.214468 12.923987 C 26.593153 12.669994 26.996685 12.456421 27.414251 12.280677 C 27.836647 12.103792 28.275378 11.974479 28.723311 11.884136 C 29.171244 11.793794 29.624698 11.748433 30.078841 11.749197 C 30.537816 11.748819 30.987818 11.796846 31.43736 11.886126 C 31.885751 11.970534 32.320338 12.104487 32.744802 12.281975 C 33.168116 12.454591 33.565662 12.669292 33.947104 12.923796 C 34.328545 13.1783 34.677088 13.466287 35.003543 13.790347 C 35.324018 14.110677 35.611593 14.46449 35.868799 14.840902 C 36.122325 15.223326 36.334669 15.625761 36.510663 16.047065 C 36.686657 16.468369 36.815488 16.905952 36.905668 17.352662 C 36.995849 17.799372 37.041397 18.251478 37.037482 18.710121 Z M 37.037482 18.710121 " stroke="#000000" stroke-width="2" stroke-opacity="1" stroke-miterlimit="10"/><path stroke-linecap="round" transform="matrix(0.179352, -0.765824, 0.759541, 0.180836, 9.513329, 38.72684)" fill="none" stroke-linejoin="round" d="M 37.037482 18.710121 C 37.038398 19.167624 36.997212 19.619639 36.904263 20.068449 C 36.816145 20.516117 36.684775 20.953428 36.509003 21.375508 C 36.333231 21.797588 36.12157 22.197286 35.869188 22.575742 C 35.611974 22.955338 35.322552 23.30654 35.000921 23.629347 C 34.679291 23.952154 34.324301 24.241694 33.945616 24.495687 C 33.56693 24.74968 33.164549 24.968125 32.741002 25.140139 C 32.323436 25.315883 31.884706 25.445196 31.436773 25.535538 C 30.98884 25.625881 30.535386 25.671241 30.081243 25.670478 C 29.622268 25.670855 29.172265 25.622828 28.723874 25.53842 C 28.274333 25.449141 27.839745 25.315187 27.416432 25.142571 C 26.991968 24.965084 26.594422 24.750383 26.21298 24.495878 C 25.831539 24.241374 25.482996 23.953387 25.157691 23.634198 C 24.836066 23.308997 24.548491 22.955185 24.291285 22.578772 C 24.037759 22.196348 23.825415 21.793913 23.649421 21.37261 C 23.473427 20.951306 23.344596 20.513722 23.254415 20.067012 C 23.164235 19.620302 23.118687 19.168196 23.117771 18.710694 C 23.121686 18.252051 23.162872 17.800035 23.255821 17.351226 C 23.343939 16.903557 23.475309 16.466247 23.651081 16.044166 C 23.822021 15.623227 24.038514 15.222388 24.290896 14.843933 C 24.54811 14.464336 24.837532 14.113134 25.159163 13.790327 C 25.480793 13.467521 25.835783 13.17798 26.214468 12.923987 C 26.593153 12.669994 26.996685 12.456421 27.414251 12.280677 C 27.836647 12.103792 28.275378 11.974479 28.723311 11.884136 C 29.171244 11.793794 29.624698 11.748433 30.078841 11.749197 C 30.537816 11.748819 30.987818 11.796846 31.43736 11.886126 C 31.885751 11.970534 32.320338 12.104487 32.744802 12.281975 C 33.168116 12.454591 33.565662 12.669292 33.947104 12.923796 C 34.328545 13.1783 34.677088 13.466287 35.003543 13.790347 C 35.324018 14.110677 35.611593 14.46449 35.868799 14.840902 C 36.122325 15.223326 36.334669 15.625761 36.510663 16.047065 C 36.686657 16.468369 36.815488 16.905952 36.905668 17.352662 C 36.995849 17.799372 37.041397 18.251478 37.037482 18.710121 Z M 37.037482 18.710121 " stroke="#000000" stroke-width="2" stroke-opacity="1" stroke-miterlimit="10"/><path stroke-linecap="round" transform="matrix(0.780429, 0, 0, 0.786885, 5.644414, 4.347543)" fill="none" stroke-linejoin="round" d="M 30.081745 3.107729 C 19.350474 3.107729 12.217983 13.309146 12.258025 20.929182 C 12.268035 22.661686 12.648435 24.11123 13.018824 25.168603 C 15.161074 29.869694 17.448476 34.679997 19.881031 39.579656 C 20.852051 41.530584 21.818066 43.451726 22.789085 45.33812 C 24.610999 48.867661 26.427907 52.297919 28.249821 55.628892 C 29.190809 57.262112 31.528264 57.262112 32.469252 55.628892 C 34.281155 52.268133 36.088053 48.778306 37.879935 45.169337 C 38.830934 43.27798 39.761912 41.351873 40.697895 39.391016 C 43.010323 34.541 45.137558 29.790267 47.109629 25.178532 C 47.500039 24.121158 47.880438 22.661686 47.900459 20.929182 C 47.970533 13.309146 40.80801 3.107729 30.081745 3.107729 Z M 30.081745 11.750389 C 33.920777 11.750389 37.039052 14.867903 37.039052 18.710188 C 37.039052 22.552473 33.920777 25.669987 30.081745 25.669987 C 26.237707 25.669987 23.119432 22.552473 23.119432 18.710188 C 23.119432 14.867903 26.237707 11.750389 30.081745 11.750389 Z M 30.081745 11.750389 " stroke="#000000" stroke-width="2" stroke-opacity="1" stroke-miterlimit="10"/><g clip-path="url(#9a7ec11b65)"><path stroke-linecap="round" transform="matrix(0.780429, 0, 0, 0.786885, 5.644414, 4.347543)" fill="none" stroke-linejoin="round" d="M 54.382267 53.429755 C 54.382267 58.200344 43.901259 62.072415 30.977686 62.072415 C 18.059118 62.072415 7.57811 58.200344 7.57811 53.429755 C 7.57811 49.721502 13.899749 46.559311 22.789085 45.33812 C 24.610999 48.867661 26.427907 52.297919 28.249821 55.628892 C 29.190809 57.262112 31.528264 57.262112 32.469252 55.628892 C 34.281155 52.268133 36.088053 48.778306 37.879935 45.169337 C 47.429965 46.26146 54.382267 49.547756 54.382267 53.429755 Z M 54.382267 53.429755 " stroke="#000000" stroke-width="2" stroke-opacity="1" stroke-miterlimit="10"/></g></svg>