<svg xmlns="http://www.w3.org/2000/svg" xmlns:xlink="http://www.w3.org/1999/xlink" width="80" zoomAndPan="magnify" viewBox="0 0 60 60" height="80" preserveAspectRatio="xMidYMid meet" version="1.0"><path fill="#000000" d="M 20.59375 44.078125 C 20.3125 44.078125 20.074219 43.871094 20.054688 43.585938 C 20.019531 43.28125 20.238281 43.007812 20.539062 42.988281 L 41.6875 40.8125 C 41.707031 40.8125 41.75 40.800781 41.761719 40.746094 C 41.773438 40.695312 41.742188 40.660156 41.730469 40.648438 C 38.242188 38.039062 28.921875 31.816406 17.550781 30.328125 C 17.246094 30.28125 17.042969 30.011719 17.074219 29.707031 C 17.117188 29.402344 17.386719 29.195312 17.691406 29.226562 C 29.308594 30.75 38.828125 37.09375 42.378906 39.757812 C 42.777344 40.050781 42.941406 40.550781 42.8125 41.03125 C 42.679688 41.511719 42.28125 41.847656 41.792969 41.890625 L 20.660156 44.054688 C 20.628906 44.078125 20.605469 44.078125 20.59375 44.078125 Z M 20.59375 44.078125 " fill-opacity="1" fill-rule="evenodd"/><path fill="#000000" d="M 16.632812 40.085938 C 16.609375 40.085938 16.597656 40.085938 16.578125 40.085938 C 16.273438 40.050781 16.058594 39.78125 16.089844 39.488281 L 18.265625 18.132812 C 18.308594 17.664062 18.636719 17.265625 19.089844 17.121094 C 19.542969 16.980469 20.042969 17.121094 20.34375 17.480469 C 22.738281 20.320312 28.304688 27.433594 28.328125 32.339844 C 28.328125 32.644531 28.089844 32.894531 27.785156 32.894531 C 27.480469 32.894531 27.242188 32.65625 27.234375 32.351562 C 27.210938 27.6875 21.320312 20.34375 19.511719 18.199219 C 19.5 18.1875 19.480469 18.15625 19.414062 18.175781 C 19.363281 18.199219 19.351562 18.230469 19.351562 18.253906 L 17.171875 39.605469 C 17.152344 39.867188 16.914062 40.085938 16.632812 40.085938 Z M 16.632812 40.085938 " fill-opacity="1" fill-rule="evenodd"/><path fill="#000000" d="M 14.617188 39.53125 C 14.457031 39.691406 14.359375 39.921875 14.359375 40.148438 C 14.359375 40.378906 14.445312 40.597656 14.605469 40.746094 L 19.371094 45.535156 C 19.707031 45.871094 20.257812 45.871094 20.59375 45.535156 C 20.757812 45.371094 20.855469 45.152344 20.855469 44.914062 C 20.855469 44.6875 20.765625 44.46875 20.59375 44.304688 L 15.832031 39.519531 C 15.507812 39.191406 14.953125 39.191406 14.617188 39.53125 Z M 20 46.894531 C 19.5 46.894531 18.992188 46.699219 18.613281 46.316406 L 13.847656 41.53125 C 13.480469 41.171875 13.273438 40.679688 13.273438 40.148438 C 13.273438 39.617188 13.480469 39.113281 13.847656 38.746094 C 14.617188 37.972656 15.851562 37.972656 16.621094 38.746094 L 21.382812 43.53125 C 21.753906 43.902344 21.957031 44.402344 21.957031 44.925781 C 21.957031 45.445312 21.753906 45.945312 21.382812 46.316406 C 20.996094 46.707031 20.496094 46.894531 20 46.894531 Z M 20 46.894531 " fill-opacity="1" fill-rule="evenodd"/><path fill="#000000" d="M 16.003906 53.996094 C 15.507812 53.996094 14.835938 53.691406 13.925781 53.085938 C 12.832031 52.34375 11.53125 51.234375 10.253906 49.953125 C 8.976562 48.667969 7.871094 47.351562 7.136719 46.265625 C 6.195312 44.859375 6 44.011719 6.476562 43.535156 C 6.550781 43.457031 6.636719 43.414062 6.734375 43.394531 L 14.941406 41.488281 C 15.234375 41.421875 15.527344 41.609375 15.605469 41.902344 C 15.667969 42.195312 15.484375 42.488281 15.191406 42.566406 L 7.351562 44.390625 C 7.546875 45.035156 8.664062 46.828125 11.035156 49.199219 C 13.394531 51.574219 15.183594 52.691406 15.820312 52.898438 L 17.640625 45.023438 C 17.703125 44.730469 17.996094 44.542969 18.300781 44.609375 C 18.59375 44.675781 18.777344 44.96875 18.710938 45.273438 L 16.816406 53.519531 C 16.792969 53.617188 16.742188 53.714844 16.664062 53.78125 C 16.480469 53.910156 16.261719 53.996094 16.003906 53.996094 Z M 16.003906 53.996094 " fill-opacity="1" fill-rule="evenodd"/><path fill="#000000" d="M 42.519531 40.769531 C 42.25 40.769531 41.992188 40.726562 41.753906 40.640625 C 41.472656 40.53125 41.332031 40.214844 41.429688 39.933594 C 41.535156 39.648438 41.851562 39.507812 42.132812 39.605469 C 42.242188 39.652344 42.371094 39.671875 42.511719 39.671875 C 43.140625 39.671875 43.691406 39.214844 43.800781 38.59375 C 43.832031 38.410156 43.953125 38.257812 44.125 38.179688 C 44.296875 38.105469 44.492188 38.128906 44.644531 38.234375 C 45.152344 38.59375 45.855469 38.53125 46.300781 38.082031 C 46.746094 37.636719 46.808594 36.929688 46.453125 36.417969 C 46.34375 36.265625 46.320312 36.070312 46.398438 35.898438 C 46.472656 35.722656 46.625 35.601562 46.808594 35.570312 C 47.425781 35.460938 47.871094 34.929688 47.871094 34.289062 C 47.871094 33.917969 47.707031 33.558594 47.425781 33.308594 C 47.253906 33.15625 47.023438 33.046875 46.796875 33.003906 C 46.613281 32.96875 46.464844 32.839844 46.398438 32.667969 C 46.332031 32.492188 46.351562 32.296875 46.449219 32.144531 C 46.808594 31.632812 46.742188 30.925781 46.300781 30.480469 C 46.191406 30.371094 46.074219 30.292969 45.941406 30.230469 C 45.53125 30.035156 45.023438 30.066406 44.640625 30.339844 C 44.492188 30.449219 44.296875 30.46875 44.121094 30.394531 C 43.949219 30.328125 43.832031 30.164062 43.789062 29.988281 C 43.667969 29.371094 43.125 28.914062 42.5 28.914062 C 41.882812 28.914062 41.328125 29.371094 41.222656 29.988281 C 41.1875 30.175781 41.070312 30.328125 40.898438 30.402344 C 40.722656 30.476562 40.527344 30.457031 40.378906 30.347656 C 39.867188 29.988281 39.164062 30.054688 38.71875 30.5 C 38.199219 31.023438 37.960938 32.035156 38.265625 32.46875 C 38.363281 32.609375 38.382812 32.773438 38.339844 32.9375 C 38.296875 33.101562 38.179688 33.230469 38.027344 33.285156 C 38.015625 33.285156 37.09375 33.699219 36.769531 34.546875 C 36.574219 35.058594 36.628906 35.644531 36.941406 36.296875 C 37.074219 36.570312 36.953125 36.894531 36.683594 37.027344 C 36.414062 37.160156 36.089844 37.039062 35.957031 36.765625 C 35.523438 35.832031 35.460938 34.9375 35.761719 34.144531 C 36.078125 33.351562 36.695312 32.828125 37.128906 32.546875 C 36.867188 31.597656 37.289062 30.402344 37.960938 29.730469 C 38.613281 29.074219 39.550781 28.867188 40.386719 29.132812 C 40.789062 28.347656 41.601562 27.816406 42.519531 27.816406 C 43.441406 27.816406 44.253906 28.335938 44.652344 29.132812 C 45.226562 28.945312 45.867188 28.980469 46.425781 29.25 C 46.664062 29.371094 46.894531 29.523438 47.089844 29.71875 C 47.738281 30.371094 47.953125 31.316406 47.671875 32.167969 C 47.847656 32.253906 48.007812 32.375 48.160156 32.503906 C 48.679688 32.972656 48.984375 33.625 48.984375 34.308594 C 48.984375 35.234375 48.464844 36.050781 47.683594 36.453125 C 47.957031 37.289062 47.738281 38.234375 47.089844 38.886719 C 46.441406 39.542969 45.5 39.75 44.664062 39.484375 C 44.253906 40.25 43.441406 40.769531 42.519531 40.769531 Z M 42.519531 40.769531 " fill-opacity="1" fill-rule="evenodd"/><path fill="#000000" d="M 41.039062 40.019531 C 41.003906 40.019531 40.960938 40.019531 40.929688 40.007812 C 40.898438 39.996094 40.863281 39.984375 40.832031 39.976562 C 40.800781 39.964844 40.765625 39.941406 40.734375 39.921875 C 40.703125 39.898438 40.679688 39.875 40.648438 39.855469 C 40.625 39.835938 40.605469 39.800781 40.582031 39.769531 C 40.5625 39.734375 40.550781 39.703125 40.53125 39.671875 C 40.519531 39.636719 40.507812 39.605469 40.496094 39.574219 C 40.484375 39.539062 40.484375 39.496094 40.484375 39.464844 C 40.484375 39.429688 40.484375 39.386719 40.496094 39.355469 C 40.507812 39.320312 40.519531 39.289062 40.53125 39.257812 C 40.539062 39.222656 40.5625 39.191406 40.582031 39.160156 C 40.605469 39.125 40.628906 39.105469 40.648438 39.070312 C 40.667969 39.050781 40.703125 39.027344 40.734375 39.007812 C 40.765625 38.984375 40.800781 38.972656 40.832031 38.953125 C 40.863281 38.941406 40.898438 38.929688 40.929688 38.921875 C 41.101562 38.886719 41.296875 38.941406 41.425781 39.070312 C 41.535156 39.171875 41.589844 39.3125 41.589844 39.464844 C 41.589844 39.496094 41.589844 39.539062 41.578125 39.574219 C 41.566406 39.605469 41.554688 39.636719 41.546875 39.671875 C 41.535156 39.703125 41.511719 39.734375 41.492188 39.769531 C 41.46875 39.800781 41.449219 39.824219 41.425781 39.855469 C 41.328125 39.953125 41.1875 40.019531 41.039062 40.019531 Z M 41.039062 40.019531 " fill-opacity="1" fill-rule="evenodd"/><path fill="#000000" d="M 32.34375 29.773438 C 32.40625 29.773438 32.484375 29.78125 32.550781 29.816406 C 32.722656 29.890625 32.839844 30.042969 32.875 30.226562 C 32.980469 30.835938 33.535156 31.304688 34.164062 31.304688 C 34.789062 31.304688 35.332031 30.847656 35.449219 30.226562 C 35.484375 30.042969 35.613281 29.890625 35.785156 29.824219 C 35.960938 29.757812 36.15625 29.78125 36.304688 29.878906 C 36.8125 30.238281 37.519531 30.171875 37.964844 29.726562 C 38.40625 29.28125 38.472656 28.574219 38.113281 28.0625 C 38.003906 27.910156 37.984375 27.714844 38.058594 27.539062 C 38.136719 27.367188 38.289062 27.246094 38.472656 27.214844 C 39.078125 27.105469 39.542969 26.550781 39.542969 25.921875 C 39.542969 25.289062 39.089844 24.746094 38.472656 24.625 C 38.289062 24.59375 38.136719 24.460938 38.070312 24.289062 C 38.003906 24.113281 38.027344 23.917969 38.125 23.765625 C 38.480469 23.253906 38.417969 22.546875 37.972656 22.101562 C 37.527344 21.65625 36.824219 21.589844 36.316406 21.949219 C 36.164062 22.058594 35.96875 22.082031 35.796875 22.003906 C 35.621094 21.925781 35.503906 21.777344 35.472656 21.589844 C 35.363281 20.980469 34.8125 20.515625 34.183594 20.515625 C 33.554688 20.515625 33.011719 20.972656 32.894531 21.589844 C 32.859375 21.777344 32.730469 21.925781 32.558594 21.992188 C 32.386719 22.058594 32.191406 22.039062 32.039062 21.941406 C 31.53125 21.582031 30.824219 21.644531 30.382812 22.089844 C 29.9375 22.539062 29.875 23.246094 30.230469 23.757812 C 30.339844 23.910156 30.363281 24.105469 30.285156 24.277344 C 30.207031 24.453125 30.058594 24.574219 29.875 24.605469 C 29.269531 24.714844 28.800781 25.269531 28.800781 25.898438 C 28.800781 26.53125 29.257812 27.074219 29.875 27.195312 C 30.058594 27.226562 30.207031 27.355469 30.273438 27.53125 C 30.351562 27.703125 30.320312 27.902344 30.222656 28.054688 C 29.863281 28.5625 29.929688 29.273438 30.371094 29.71875 C 30.816406 30.164062 31.519531 30.226562 32.03125 29.871094 C 32.128906 29.804688 32.234375 29.773438 32.34375 29.773438 Z M 34.171875 32.394531 C 33.253906 32.394531 32.429688 31.871094 32.03125 31.078125 C 31.195312 31.347656 30.253906 31.140625 29.605469 30.480469 C 28.953125 29.828125 28.738281 28.882812 29.019531 28.042969 C 28.230469 27.640625 27.710938 26.816406 27.710938 25.902344 C 27.710938 24.976562 28.230469 24.148438 29.019531 23.746094 C 28.75 22.910156 28.953125 21.964844 29.613281 21.308594 C 30.265625 20.65625 31.207031 20.441406 32.039062 20.722656 C 32.441406 19.929688 33.261719 19.40625 34.171875 19.40625 C 35.09375 19.40625 35.914062 19.929688 36.316406 20.722656 C 37.148438 20.449219 38.089844 20.65625 38.742188 21.320312 C 39.390625 21.972656 39.597656 22.917969 39.324219 23.757812 C 40.117188 24.160156 40.636719 24.984375 40.636719 25.898438 C 40.636719 26.824219 40.117188 27.652344 39.324219 28.054688 C 39.597656 28.890625 39.390625 29.835938 38.730469 30.488281 C 38.082031 31.140625 37.140625 31.347656 36.304688 31.078125 C 35.90625 31.871094 35.082031 32.394531 34.171875 32.394531 Z M 34.171875 32.394531 " fill-opacity="1" fill-rule="evenodd"/><path fill="#000000" d="M 32.34375 29.773438 C 32.40625 29.773438 32.484375 29.78125 32.550781 29.816406 C 32.722656 29.890625 32.839844 30.042969 32.875 30.226562 C 32.980469 30.835938 33.535156 31.304688 34.164062 31.304688 C 34.789062 31.304688 35.332031 30.847656 35.449219 30.226562 C 35.484375 30.042969 35.613281 29.890625 35.785156 29.824219 C 35.960938 29.757812 36.15625 29.78125 36.304688 29.878906 C 36.8125 30.238281 37.519531 30.171875 37.964844 29.726562 C 38.40625 29.28125 38.472656 28.574219 38.113281 28.0625 C 38.003906 27.910156 37.984375 27.714844 38.058594 27.539062 C 38.136719 27.367188 38.289062 27.246094 38.472656 27.214844 C 39.078125 27.105469 39.542969 26.550781 39.542969 25.921875 C 39.542969 25.289062 39.089844 24.746094 38.472656 24.625 C 38.289062 24.59375 38.136719 24.460938 38.070312 24.289062 C 38.003906 24.113281 38.027344 23.917969 38.125 23.765625 C 38.480469 23.253906 38.417969 22.546875 37.972656 22.101562 C 37.527344 21.65625 36.824219 21.589844 36.316406 21.949219 C 36.164062 22.058594 35.96875 22.082031 35.796875 22.003906 C 35.621094 21.925781 35.503906 21.777344 35.472656 21.589844 C 35.363281 20.980469 34.8125 20.515625 34.183594 20.515625 C 33.554688 20.515625 33.011719 20.972656 32.894531 21.589844 C 32.859375 21.777344 32.730469 21.925781 32.558594 21.992188 C 32.386719 22.058594 32.191406 22.039062 32.039062 21.941406 C 31.53125 21.582031 30.824219 21.644531 30.382812 22.089844 C 29.9375 22.539062 29.875 23.246094 30.230469 23.757812 C 30.339844 23.910156 30.363281 24.105469 30.285156 24.277344 C 30.207031 24.453125 30.058594 24.574219 29.875 24.605469 C 29.269531 24.714844 28.800781 25.269531 28.800781 25.898438 C 28.800781 26.53125 29.257812 27.074219 29.875 27.195312 C 30.058594 27.226562 30.207031 27.355469 30.273438 27.53125 C 30.351562 27.703125 30.320312 27.902344 30.222656 28.054688 C 29.863281 28.5625 29.929688 29.273438 30.371094 29.71875 C 30.816406 30.164062 31.519531 30.226562 32.03125 29.871094 C 32.128906 29.804688 32.234375 29.773438 32.34375 29.773438 Z M 34.171875 32.394531 C 33.253906 32.394531 32.429688 31.871094 32.03125 31.078125 C 31.195312 31.347656 30.253906 31.140625 29.605469 30.480469 C 28.953125 29.828125 28.738281 28.882812 29.019531 28.042969 C 28.230469 27.640625 27.710938 26.816406 27.710938 25.902344 C 27.710938 24.976562 28.230469 24.148438 29.019531 23.746094 C 28.75 22.910156 28.953125 21.964844 29.613281 21.308594 C 30.265625 20.65625 31.207031 20.441406 32.039062 20.722656 C 32.441406 19.929688 33.261719 19.40625 34.171875 19.40625 C 35.09375 19.40625 35.914062 19.929688 36.316406 20.722656 C 37.148438 20.449219 38.089844 20.65625 38.742188 21.320312 C 39.390625 21.972656 39.597656 22.917969 39.324219 23.757812 C 40.117188 24.160156 40.636719 24.984375 40.636719 25.898438 C 40.636719 26.824219 40.117188 27.652344 39.324219 28.054688 C 39.597656 28.890625 39.390625 29.835938 38.730469 30.488281 C 38.082031 31.140625 37.140625 31.347656 36.304688 31.078125 C 35.90625 31.871094 35.082031 32.394531 34.171875 32.394531 Z M 34.171875 32.394531 " fill-opacity="1" fill-rule="evenodd"/><path fill="#000000" d="M 38.71875 22.765625 C 38.6875 22.765625 38.644531 22.765625 38.613281 22.753906 C 38.578125 22.746094 38.546875 22.734375 38.515625 22.722656 C 38.480469 22.710938 38.449219 22.691406 38.417969 22.667969 C 38.382812 22.648438 38.363281 22.625 38.328125 22.605469 C 38.230469 22.507812 38.167969 22.363281 38.167969 22.210938 C 38.167969 22.070312 38.222656 21.929688 38.328125 21.820312 C 38.351562 21.796875 38.382812 21.777344 38.417969 21.753906 C 38.449219 21.734375 38.480469 21.722656 38.515625 21.699219 C 38.546875 21.691406 38.578125 21.679688 38.613281 21.667969 C 38.6875 21.65625 38.75 21.65625 38.828125 21.667969 C 38.863281 21.679688 38.894531 21.691406 38.925781 21.699219 C 38.960938 21.710938 38.992188 21.734375 39.023438 21.753906 C 39.058594 21.777344 39.078125 21.800781 39.109375 21.820312 C 39.207031 21.917969 39.273438 22.058594 39.273438 22.210938 C 39.273438 22.351562 39.21875 22.496094 39.109375 22.605469 C 39.089844 22.625 39.058594 22.648438 39.023438 22.667969 C 38.992188 22.691406 38.960938 22.703125 38.925781 22.722656 C 38.894531 22.734375 38.863281 22.746094 38.828125 22.753906 C 38.785156 22.765625 38.753906 22.765625 38.71875 22.765625 Z M 38.71875 22.765625 " fill-opacity="1" fill-rule="evenodd"/><path fill="#000000" d="M 46.3125 30.285156 C 46.257812 30.285156 46.214844 30.285156 46.160156 30.285156 C 45.855469 30.261719 45.628906 30 45.652344 29.695312 C 45.671875 29.390625 45.933594 29.164062 46.238281 29.183594 C 46.605469 29.207031 46.949219 29.074219 47.222656 28.804688 C 47.664062 28.359375 47.730469 27.652344 47.371094 27.140625 C 47.265625 26.988281 47.242188 26.792969 47.320312 26.617188 C 47.394531 26.441406 47.546875 26.324219 47.730469 26.292969 C 48.347656 26.183594 48.789062 25.636719 48.789062 24.996094 C 48.789062 24.367188 48.347656 23.820312 47.730469 23.710938 C 47.546875 23.679688 47.394531 23.5625 47.320312 23.386719 C 47.242188 23.210938 47.265625 23.015625 47.371094 22.863281 C 47.730469 22.355469 47.664062 21.644531 47.222656 21.199219 C 46.777344 20.753906 46.074219 20.6875 45.5625 21.046875 C 45.414062 21.15625 45.21875 21.179688 45.046875 21.101562 C 44.871094 21.027344 44.753906 20.875 44.722656 20.6875 C 44.613281 20.082031 44.058594 19.613281 43.441406 19.613281 C 42.816406 19.613281 42.273438 20.070312 42.152344 20.6875 C 42.121094 20.875 41.992188 21.027344 41.820312 21.09375 C 41.644531 21.160156 41.449219 21.136719 41.300781 21.039062 C 40.789062 20.679688 40.085938 20.746094 39.640625 21.191406 C 39.425781 21.410156 39.078125 21.410156 38.875 21.191406 C 38.65625 20.972656 38.65625 20.625 38.875 20.417969 C 39.523438 19.765625 40.464844 19.550781 41.300781 19.832031 C 41.699219 19.035156 42.523438 18.515625 43.433594 18.515625 C 44.351562 18.515625 45.164062 19.035156 45.5625 19.832031 C 46.398438 19.558594 47.339844 19.777344 47.988281 20.429688 C 48.640625 21.078125 48.847656 22.027344 48.585938 22.863281 C 49.363281 23.269531 49.894531 24.082031 49.894531 25.007812 C 49.894531 25.945312 49.375 26.757812 48.585938 27.160156 C 48.855469 28 48.636719 28.945312 47.988281 29.597656 C 47.546875 30.03125 46.9375 30.285156 46.3125 30.285156 Z M 46.3125 30.285156 " fill-opacity="1" fill-rule="evenodd"/><path fill="#000000" d="M 38.71875 22.765625 C 38.6875 22.765625 38.644531 22.765625 38.613281 22.753906 C 38.578125 22.746094 38.546875 22.734375 38.515625 22.722656 C 38.480469 22.710938 38.449219 22.691406 38.417969 22.667969 C 38.382812 22.648438 38.363281 22.625 38.328125 22.605469 C 38.230469 22.507812 38.167969 22.363281 38.167969 22.210938 C 38.167969 22.070312 38.222656 21.929688 38.328125 21.820312 C 38.351562 21.796875 38.382812 21.777344 38.417969 21.753906 C 38.449219 21.734375 38.480469 21.722656 38.515625 21.699219 C 38.546875 21.691406 38.578125 21.679688 38.613281 21.667969 C 38.6875 21.65625 38.75 21.65625 38.828125 21.667969 C 38.863281 21.679688 38.894531 21.691406 38.925781 21.699219 C 38.960938 21.710938 38.992188 21.734375 39.023438 21.753906 C 39.058594 21.777344 39.078125 21.800781 39.109375 21.820312 C 39.207031 21.917969 39.273438 22.058594 39.273438 22.210938 C 39.273438 22.351562 39.21875 22.496094 39.109375 22.605469 C 39.089844 22.625 39.058594 22.648438 39.023438 22.667969 C 38.992188 22.691406 38.960938 22.703125 38.925781 22.722656 C 38.894531 22.734375 38.863281 22.746094 38.828125 22.753906 C 38.785156 22.765625 38.753906 22.765625 38.71875 22.765625 Z M 38.71875 22.765625 " fill-opacity="1" fill-rule="evenodd"/><path fill="#000000" d="M 46.3125 30.285156 C 46.257812 30.285156 46.214844 30.285156 46.160156 30.285156 C 45.855469 30.261719 45.628906 30 45.652344 29.695312 C 45.671875 29.390625 45.933594 29.164062 46.238281 29.183594 C 46.605469 29.207031 46.949219 29.074219 47.222656 28.804688 C 47.664062 28.359375 47.730469 27.652344 47.371094 27.140625 C 47.265625 26.988281 47.242188 26.792969 47.320312 26.617188 C 47.394531 26.441406 47.546875 26.324219 47.730469 26.292969 C 48.347656 26.183594 48.789062 25.636719 48.789062 24.996094 C 48.789062 24.367188 48.347656 23.820312 47.730469 23.710938 C 47.546875 23.679688 47.394531 23.5625 47.320312 23.386719 C 47.242188 23.210938 47.265625 23.015625 47.371094 22.863281 C 47.730469 22.355469 47.664062 21.644531 47.222656 21.199219 C 46.777344 20.753906 46.074219 20.6875 45.5625 21.046875 C 45.414062 21.15625 45.21875 21.179688 45.046875 21.101562 C 44.871094 21.027344 44.753906 20.875 44.722656 20.6875 C 44.613281 20.082031 44.058594 19.613281 43.441406 19.613281 C 42.816406 19.613281 42.273438 20.070312 42.152344 20.6875 C 42.121094 20.875 41.992188 21.027344 41.820312 21.09375 C 41.644531 21.160156 41.449219 21.136719 41.300781 21.039062 C 40.789062 20.679688 40.085938 20.746094 39.640625 21.191406 C 39.425781 21.410156 39.078125 21.410156 38.875 21.191406 C 38.65625 20.972656 38.65625 20.625 38.875 20.417969 C 39.523438 19.765625 40.464844 19.550781 41.300781 19.832031 C 41.699219 19.035156 42.523438 18.515625 43.433594 18.515625 C 44.351562 18.515625 45.164062 19.035156 45.5625 19.832031 C 46.398438 19.558594 47.339844 19.777344 47.988281 20.429688 C 48.640625 21.078125 48.847656 22.027344 48.585938 22.863281 C 49.363281 23.269531 49.894531 24.082031 49.894531 25.007812 C 49.894531 25.945312 49.375 26.757812 48.585938 27.160156 C 48.855469 28 48.636719 28.945312 47.988281 29.597656 C 47.546875 30.03125 46.9375 30.285156 46.3125 30.285156 Z M 46.3125 30.285156 " fill-opacity="1" fill-rule="evenodd"/><path fill="#000000" d="M 39.25 21.351562 C 39.113281 21.351562 38.96875 21.296875 38.863281 21.1875 C 38.644531 20.972656 38.644531 20.621094 38.863281 20.417969 C 39.304688 19.972656 39.371094 19.265625 39.011719 18.753906 C 38.902344 18.601562 38.882812 18.40625 38.960938 18.230469 C 39.035156 18.054688 39.1875 17.9375 39.371094 17.90625 C 39.976562 17.796875 40.441406 17.242188 40.441406 16.609375 C 40.441406 15.980469 39.988281 15.433594 39.371094 15.316406 C 39.1875 15.28125 39.035156 15.152344 38.96875 14.976562 C 38.902344 14.804688 38.914062 14.609375 39.023438 14.457031 C 39.378906 13.945312 39.316406 13.238281 38.871094 12.792969 C 38.425781 12.34375 37.722656 12.28125 37.214844 12.640625 C 37.0625 12.75 36.867188 12.769531 36.695312 12.691406 C 36.519531 12.617188 36.402344 12.464844 36.371094 12.28125 C 36.261719 11.671875 35.710938 11.203125 35.082031 11.203125 C 34.453125 11.203125 33.910156 11.660156 33.792969 12.28125 C 33.757812 12.464844 33.628906 12.617188 33.457031 12.683594 C 33.285156 12.75 33.089844 12.726562 32.9375 12.628906 C 32.429688 12.269531 31.722656 12.335938 31.28125 12.78125 C 31.019531 13.042969 30.878906 13.402344 30.902344 13.78125 C 30.914062 14.085938 30.683594 14.335938 30.382812 14.359375 C 30.078125 14.371094 29.828125 14.140625 29.808594 13.835938 C 29.773438 13.140625 30.023438 12.488281 30.511719 12.011719 C 31.160156 11.355469 32.101562 11.148438 32.9375 11.421875 C 33.335938 10.628906 34.160156 10.105469 35.070312 10.105469 C 35.988281 10.105469 36.8125 10.628906 37.210938 11.421875 C 38.046875 11.148438 38.988281 11.355469 39.636719 12.019531 C 40.289062 12.671875 40.492188 13.617188 40.222656 14.457031 C 41.011719 14.859375 41.53125 15.683594 41.53125 16.597656 C 41.53125 17.523438 41.011719 18.351562 40.222656 18.753906 C 40.492188 19.589844 40.289062 20.535156 39.628906 21.1875 C 39.53125 21.296875 39.390625 21.351562 39.25 21.351562 Z M 39.25 21.351562 " fill-opacity="1" fill-rule="evenodd"/><path fill="#000000" d="M 38.351562 22.253906 C 38.210938 22.253906 38.070312 22.199219 37.960938 22.09375 C 37.746094 21.875 37.753906 21.527344 37.960938 21.320312 L 38.871094 20.417969 C 39.316406 19.972656 39.378906 19.277344 39.023438 18.753906 C 38.914062 18.601562 38.890625 18.40625 38.96875 18.230469 C 39.035156 18.054688 39.195312 17.9375 39.371094 17.894531 C 39.988281 17.773438 40.441406 17.230469 40.441406 16.597656 C 40.441406 15.96875 39.988281 15.414062 39.371094 15.304688 C 39.1875 15.269531 39.035156 15.152344 38.960938 14.976562 C 38.882812 14.804688 38.90625 14.609375 39.011719 14.457031 C 39.371094 13.945312 39.304688 13.238281 38.863281 12.792969 C 38.417969 12.34375 37.714844 12.28125 37.203125 12.640625 C 37.054688 12.75 36.859375 12.769531 36.683594 12.691406 C 36.511719 12.617188 36.390625 12.464844 36.351562 12.289062 C 36.230469 11.671875 35.6875 11.214844 35.0625 11.214844 C 34.433594 11.214844 33.878906 11.671875 33.773438 12.289062 C 33.738281 12.476562 33.621094 12.628906 33.449219 12.703125 C 33.273438 12.777344 33.078125 12.757812 32.929688 12.648438 C 32.417969 12.289062 31.714844 12.355469 31.269531 12.800781 C 31 13.074219 30.859375 13.421875 30.890625 13.789062 C 30.914062 14.097656 30.6875 14.355469 30.382812 14.378906 C 30.078125 14.402344 29.820312 14.171875 29.796875 13.867188 C 29.753906 13.191406 30.015625 12.519531 30.5 12.03125 C 31.152344 11.375 32.09375 11.167969 32.925781 11.429688 C 33.328125 10.648438 34.140625 10.117188 35.070312 10.117188 C 35.992188 10.117188 36.804688 10.636719 37.203125 11.429688 C 38.035156 11.160156 38.976562 11.367188 39.628906 12.019531 C 40.277344 12.671875 40.484375 13.617188 40.222656 14.457031 C 41.003906 14.859375 41.523438 15.675781 41.523438 16.609375 C 41.523438 17.535156 41.003906 18.351562 40.214844 18.753906 C 40.484375 19.589844 40.277344 20.535156 39.628906 21.1875 L 38.71875 22.09375 C 38.621094 22.199219 38.492188 22.253906 38.351562 22.253906 Z M 38.351562 22.253906 " fill-opacity="1" fill-rule="evenodd"/><path fill="#000000" d="M 25.402344 24.167969 C 24.914062 24.167969 24.394531 24.050781 23.832031 23.820312 C 23.550781 23.703125 23.421875 23.386719 23.539062 23.105469 C 23.660156 22.820312 23.972656 22.691406 24.253906 22.808594 C 25 23.113281 25.617188 23.15625 26.09375 22.929688 C 26.734375 22.625 26.960938 21.917969 26.960938 21.90625 C 27.015625 21.734375 27.132812 21.601562 27.308594 21.546875 C 27.46875 21.492188 27.652344 21.515625 27.804688 21.613281 C 28.269531 21.9375 29.125 21.785156 29.613281 21.308594 C 30.054688 20.863281 30.121094 20.15625 29.761719 19.644531 C 29.65625 19.492188 29.632812 19.292969 29.710938 19.121094 C 29.785156 18.945312 29.9375 18.828125 30.121094 18.796875 C 30.738281 18.6875 31.191406 18.152344 31.191406 17.511719 C 31.191406 16.890625 30.738281 16.335938 30.121094 16.226562 C 29.9375 16.195312 29.785156 16.074219 29.710938 15.902344 C 29.632812 15.726562 29.65625 15.53125 29.761719 15.378906 C 30.023438 15 30.066406 14.488281 29.871094 14.074219 C 29.808594 13.933594 29.722656 13.8125 29.625 13.714844 C 29.179688 13.269531 28.476562 13.203125 27.964844 13.5625 C 27.816406 13.671875 27.621094 13.695312 27.445312 13.617188 C 27.273438 13.550781 27.152344 13.398438 27.113281 13.214844 C 27.066406 12.976562 26.960938 12.757812 26.796875 12.570312 C 26.546875 12.289062 26.203125 12.125 25.824219 12.125 C 25.195312 12.125 24.640625 12.582031 24.535156 13.203125 C 24.5 13.386719 24.382812 13.539062 24.210938 13.617188 C 24.035156 13.691406 23.839844 13.667969 23.691406 13.5625 C 23.183594 13.203125 22.476562 13.269531 22.03125 13.714844 C 21.589844 14.160156 21.523438 14.867188 21.882812 15.378906 C 21.992188 15.53125 22.011719 15.726562 21.933594 15.898438 C 21.871094 16.074219 21.707031 16.195312 21.535156 16.238281 C 20.917969 16.355469 20.460938 16.902344 20.460938 17.53125 C 20.460938 17.609375 20.484375 17.71875 20.496094 17.804688 C 20.550781 18.097656 20.355469 18.390625 20.050781 18.445312 C 19.757812 18.5 19.464844 18.304688 19.414062 18 C 19.390625 17.859375 19.359375 17.695312 19.359375 17.53125 C 19.359375 16.605469 19.878906 15.792969 20.667969 15.390625 C 20.398438 14.550781 20.605469 13.605469 21.253906 12.953125 C 21.902344 12.300781 22.84375 12.09375 23.679688 12.355469 C 24.082031 11.574219 24.890625 11.039062 25.824219 11.039062 C 26.515625 11.039062 27.152344 11.332031 27.621094 11.855469 C 27.75 12.007812 27.867188 12.171875 27.957031 12.355469 C 28.789062 12.082031 29.730469 12.289062 30.390625 12.941406 C 30.585938 13.140625 30.738281 13.355469 30.859375 13.605469 C 31.128906 14.164062 31.160156 14.804688 30.976562 15.378906 C 31.757812 15.78125 32.277344 16.597656 32.277344 17.523438 C 32.277344 18.445312 31.757812 19.261719 30.976562 19.664062 C 31.246094 20.503906 31.03125 21.449219 30.382812 22.101562 C 29.6875 22.796875 28.617188 23.070312 27.75 22.808594 C 27.535156 23.179688 27.164062 23.644531 26.558594 23.941406 C 26.214844 24.082031 25.824219 24.167969 25.402344 24.167969 Z M 25.402344 24.167969 " fill-opacity="1" fill-rule="evenodd"/><path fill="#000000" d="M 44.265625 19.808594 C 44.113281 19.808594 43.972656 19.753906 43.863281 19.632812 C 43.65625 19.414062 43.667969 19.066406 43.886719 18.863281 C 45.304688 17.523438 46.125 15.738281 46.214844 13.804688 C 44.285156 13.890625 42.5 14.71875 41.179688 16.140625 C 40.972656 16.359375 40.625 16.371094 40.410156 16.164062 C 40.191406 15.957031 40.183594 15.609375 40.386719 15.390625 C 41.957031 13.707031 44.082031 12.75 46.367188 12.695312 C 46.613281 12.671875 46.863281 12.769531 47.046875 12.964844 C 47.21875 13.128906 47.316406 13.378906 47.316406 13.628906 L 47.316406 13.640625 C 47.273438 15.949219 46.320312 18.089844 44.632812 19.667969 C 44.535156 19.765625 44.394531 19.808594 44.265625 19.808594 Z M 44.265625 19.808594 " fill-opacity="1" fill-rule="evenodd"/><path fill="#000000" d="M 31.714844 34.589844 C 31.59375 34.589844 31.476562 34.558594 31.378906 34.472656 C 31.140625 34.285156 31.097656 33.9375 31.28125 33.699219 C 31.855469 32.960938 32.375 32.164062 32.832031 31.347656 C 32.980469 31.089844 33.308594 30.992188 33.578125 31.132812 C 33.835938 31.28125 33.933594 31.609375 33.796875 31.882812 C 33.320312 32.753906 32.765625 33.589844 32.148438 34.375 C 32.039062 34.515625 31.878906 34.589844 31.714844 34.589844 Z M 31.714844 34.589844 " fill-opacity="1" fill-rule="evenodd"/><path fill="#000000" d="M 26.648438 28.519531 C 26.472656 28.519531 26.3125 28.445312 26.203125 28.292969 C 26.03125 28.042969 26.074219 27.703125 26.324219 27.519531 C 26.941406 27.0625 27.578125 26.652344 28.230469 26.292969 C 28.488281 26.140625 28.824219 26.238281 28.976562 26.511719 C 29.128906 26.773438 29.03125 27.109375 28.757812 27.261719 C 28.152344 27.597656 27.558594 27.980469 26.972656 28.414062 C 26.875 28.488281 26.765625 28.519531 26.648438 28.519531 Z M 26.648438 28.519531 " fill-opacity="1" fill-rule="evenodd"/><path fill="#000000" d="M 47.859375 33.449219 C 47.835938 33.449219 47.828125 33.449219 47.816406 33.449219 C 47.511719 33.449219 47.273438 33.199219 47.273438 32.894531 C 47.273438 32.589844 47.523438 32.351562 47.828125 32.351562 C 47.835938 32.351562 47.859375 32.351562 47.871094 32.351562 C 49.722656 32.351562 51.476562 31.664062 52.839844 30.414062 C 51.550781 29.226562 49.894531 28.554688 48.164062 28.488281 C 47.859375 28.476562 47.621094 28.226562 47.632812 27.921875 C 47.644531 27.628906 47.882812 27.390625 48.171875 27.390625 C 48.183594 27.390625 48.183594 27.390625 48.195312 27.390625 C 50.265625 27.464844 52.222656 28.292969 53.730469 29.738281 C 53.742188 29.75 53.75 29.761719 53.761719 29.78125 C 53.914062 29.96875 54 30.1875 54 30.414062 C 54 30.664062 53.902344 30.890625 53.71875 31.078125 C 53.71875 31.078125 53.71875 31.078125 53.707031 31.089844 C 52.136719 32.609375 50.058594 33.449219 47.859375 33.449219 Z M 47.859375 33.449219 " fill-opacity="1" fill-rule="evenodd"/><path fill="#000000" d="M 27.210938 12.757812 C 26.90625 12.757812 26.667969 12.519531 26.65625 12.214844 C 26.648438 10.003906 27.480469 7.90625 29.007812 6.296875 C 29.179688 6.109375 29.417969 6.003906 29.679688 6.003906 C 29.929688 6.003906 30.167969 6.101562 30.339844 6.273438 L 30.351562 6.285156 C 31.792969 7.796875 32.625 9.777344 32.703125 11.84375 C 32.710938 12.148438 32.476562 12.398438 32.171875 12.410156 C 31.867188 12.421875 31.617188 12.183594 31.609375 11.878906 C 31.542969 10.136719 30.871094 8.472656 29.691406 7.179688 C 28.433594 8.558594 27.753906 10.332031 27.761719 12.203125 C 27.761719 12.507812 27.515625 12.757812 27.210938 12.757812 Z M 27.210938 12.757812 " fill-opacity="1" fill-rule="evenodd"/><path fill="#000000" d="M 42.53125 32.949219 C 41.796875 32.949219 41.199219 33.546875 41.199219 34.285156 C 41.199219 35.027344 41.796875 35.625 42.53125 35.625 C 43.269531 35.625 43.863281 35.027344 43.863281 34.285156 C 43.863281 33.546875 43.257812 32.949219 42.53125 32.949219 Z M 42.53125 36.722656 C 41.199219 36.722656 40.105469 35.636719 40.105469 34.289062 C 40.105469 32.949219 41.1875 31.851562 42.53125 31.851562 C 43.863281 31.851562 44.957031 32.9375 44.957031 34.289062 C 44.957031 35.636719 43.863281 36.722656 42.53125 36.722656 Z M 42.53125 36.722656 " fill-opacity="1" fill-rule="evenodd"/><path fill="#000000" d="M 43.429688 23.867188 C 42.8125 23.867188 42.304688 24.375 42.304688 24.996094 C 42.304688 25.617188 42.8125 26.128906 43.429688 26.128906 C 44.046875 26.128906 44.558594 25.617188 44.558594 24.996094 C 44.558594 24.375 44.046875 23.867188 43.429688 23.867188 Z M 43.429688 27.226562 C 42.207031 27.226562 41.210938 26.226562 41.210938 24.996094 C 41.210938 23.769531 42.207031 22.765625 43.429688 22.765625 C 44.652344 22.765625 45.648438 23.769531 45.648438 24.996094 C 45.652344 26.226562 44.65625 27.226562 43.429688 27.226562 Z M 43.429688 27.226562 " fill-opacity="1" fill-rule="evenodd"/><path fill="#000000" d="M 35.070312 15.464844 C 34.453125 15.464844 33.945312 15.976562 33.945312 16.597656 C 33.945312 17.21875 34.453125 17.730469 35.070312 17.730469 C 35.691406 17.730469 36.199219 17.21875 36.199219 16.597656 C 36.199219 15.976562 35.6875 15.464844 35.070312 15.464844 Z M 35.070312 18.828125 C 33.847656 18.828125 32.851562 17.828125 32.851562 16.597656 C 32.851562 15.371094 33.847656 14.371094 35.070312 14.371094 C 36.292969 14.371094 37.289062 15.371094 37.289062 16.597656 C 37.289062 17.828125 36.292969 18.828125 35.070312 18.828125 Z M 35.070312 18.828125 " fill-opacity="1" fill-rule="evenodd"/><path fill="#000000" d="M 34.171875 24.5625 C 33.4375 24.5625 32.839844 25.160156 32.839844 25.898438 C 32.839844 26.640625 33.4375 27.238281 34.171875 27.238281 C 34.910156 27.238281 35.503906 26.640625 35.503906 25.898438 C 35.503906 25.171875 34.910156 24.5625 34.171875 24.5625 Z M 34.171875 28.335938 C 32.839844 28.335938 31.746094 27.246094 31.746094 25.898438 C 31.746094 24.5625 32.839844 23.460938 34.171875 23.460938 C 35.503906 23.460938 36.597656 24.550781 36.597656 25.898438 C 36.597656 27.246094 35.503906 28.335938 34.171875 28.335938 Z M 34.171875 28.335938 " fill-opacity="1" fill-rule="evenodd"/><path fill="#000000" d="M 25.824219 16.171875 C 25.085938 16.171875 24.492188 16.769531 24.492188 17.511719 C 24.492188 18.25 25.085938 18.847656 25.824219 18.847656 C 26.5625 18.847656 27.15625 18.25 27.15625 17.511719 C 27.15625 16.773438 26.5625 16.171875 25.824219 16.171875 Z M 25.824219 19.9375 C 24.492188 19.9375 23.398438 18.851562 23.398438 17.5 C 23.398438 16.164062 24.492188 15.066406 25.824219 15.066406 C 27.15625 15.066406 28.25 16.152344 28.25 17.5 C 28.25 18.851562 27.15625 19.9375 25.824219 19.9375 Z M 25.824219 19.9375 " fill-opacity="1" fill-rule="evenodd"/></svg>