<svg xmlns="http://www.w3.org/2000/svg" xmlns:xlink="http://www.w3.org/1999/xlink" width="80" zoomAndPan="magnify" viewBox="0 0 60 60" height="80" preserveAspectRatio="xMidYMid meet" version="1.0"><defs><clipPath id="59b4c690f5"><path d="M 6 10.230469 L 54 10.230469 L 54 49.980469 L 6 49.980469 Z M 6 10.230469 " clip-rule="nonzero"/></clipPath></defs><g clip-path="url(#59b4c690f5)"><path fill="#000000" d="M 15.789062 25.46875 L 13.453125 25.46875 C 12.453125 25.46875 11.640625 26.285156 11.640625 27.289062 L 11.640625 29.449219 C 11.640625 30.453125 12.453125 31.269531 13.453125 31.269531 L 15.789062 31.269531 C 16.789062 31.269531 17.601562 30.453125 17.601562 29.449219 L 17.601562 27.289062 C 17.601562 26.285156 16.789062 25.46875 15.789062 25.46875 Z M 16.40625 29.449219 C 16.40625 29.789062 16.128906 30.070312 15.789062 30.070312 L 13.453125 30.070312 C 13.109375 30.070312 12.835938 29.789062 12.835938 29.449219 L 12.835938 27.289062 C 12.835938 26.945312 13.109375 26.667969 13.453125 26.667969 L 15.789062 26.667969 C 16.128906 26.667969 16.40625 26.945312 16.40625 27.289062 Z M 26.625 25.46875 L 24.289062 25.46875 C 23.289062 25.46875 22.476562 26.285156 22.476562 27.289062 L 22.476562 29.449219 C 22.476562 30.453125 23.289062 31.269531 24.289062 31.269531 L 26.625 31.269531 C 27.625 31.269531 28.4375 30.453125 28.4375 29.449219 L 28.4375 27.289062 C 28.4375 26.285156 27.625 25.46875 26.625 25.46875 Z M 27.242188 29.449219 C 27.242188 29.789062 26.964844 30.070312 26.625 30.070312 L 24.289062 30.070312 C 23.945312 30.070312 23.671875 29.789062 23.671875 29.449219 L 23.671875 27.289062 C 23.671875 26.945312 23.945312 26.667969 24.289062 26.667969 L 26.625 26.667969 C 26.964844 26.667969 27.242188 26.945312 27.242188 27.289062 Z M 15.789062 33.015625 L 13.453125 33.015625 C 12.453125 33.015625 11.640625 33.832031 11.640625 34.835938 L 11.640625 36.996094 C 11.640625 38 12.453125 38.820312 13.453125 38.820312 L 15.789062 38.820312 C 16.789062 38.820312 17.601562 38 17.601562 36.996094 L 17.601562 34.835938 C 17.601562 33.832031 16.789062 33.015625 15.789062 33.015625 Z M 16.40625 36.996094 C 16.40625 37.339844 16.128906 37.617188 15.789062 37.617188 L 13.453125 37.617188 C 13.109375 37.617188 12.835938 37.339844 12.835938 36.996094 L 12.835938 34.835938 C 12.835938 34.496094 13.109375 34.21875 13.453125 34.21875 L 15.789062 34.21875 C 16.128906 34.21875 16.40625 34.496094 16.40625 34.835938 Z M 26.625 33.015625 L 24.289062 33.015625 C 23.289062 33.015625 22.476562 33.832031 22.476562 34.835938 L 22.476562 36.996094 C 22.476562 38 23.289062 38.820312 24.289062 38.820312 L 26.625 38.820312 C 27.625 38.820312 28.4375 38 28.4375 36.996094 L 28.4375 34.835938 C 28.4375 33.832031 27.625 33.015625 26.625 33.015625 Z M 27.242188 36.996094 C 27.242188 37.339844 26.964844 37.617188 26.625 37.617188 L 24.289062 37.617188 C 23.945312 37.617188 23.671875 37.339844 23.671875 36.996094 L 23.671875 34.835938 C 23.671875 34.496094 23.945312 34.21875 24.289062 34.21875 L 26.625 34.21875 C 26.964844 34.21875 27.242188 34.496094 27.242188 34.835938 Z M 37.460938 33.015625 L 35.121094 33.015625 C 34.125 33.015625 33.3125 33.832031 33.3125 34.835938 L 33.3125 36.996094 C 33.3125 38 34.125 38.820312 35.121094 38.820312 L 37.460938 38.820312 C 38.460938 38.820312 39.273438 38 39.273438 36.996094 L 39.273438 34.835938 C 39.273438 33.832031 38.460938 33.015625 37.460938 33.015625 Z M 38.078125 36.996094 C 38.078125 37.339844 37.800781 37.617188 37.460938 37.617188 L 35.121094 37.617188 C 34.78125 37.617188 34.503906 37.339844 34.503906 36.996094 L 34.503906 34.835938 C 34.503906 34.496094 34.78125 34.21875 35.121094 34.21875 L 37.460938 34.21875 C 37.800781 34.21875 38.078125 34.496094 38.078125 34.835938 Z M 15.789062 40.5625 L 13.453125 40.5625 C 12.453125 40.5625 11.640625 41.378906 11.640625 42.386719 L 11.640625 44.542969 C 11.640625 45.550781 12.453125 46.367188 13.453125 46.367188 L 15.789062 46.367188 C 16.789062 46.367188 17.601562 45.550781 17.601562 44.542969 L 17.601562 42.386719 C 17.601562 41.378906 16.789062 40.5625 15.789062 40.5625 Z M 16.40625 44.542969 C 16.40625 44.886719 16.128906 45.164062 15.789062 45.164062 L 13.453125 45.164062 C 13.109375 45.164062 12.835938 44.886719 12.835938 44.542969 L 12.835938 42.386719 C 12.835938 42.042969 13.109375 41.765625 13.453125 41.765625 L 15.789062 41.765625 C 16.128906 41.765625 16.40625 42.042969 16.40625 42.386719 Z M 26.625 40.5625 L 24.289062 40.5625 C 23.289062 40.5625 22.476562 41.378906 22.476562 42.386719 L 22.476562 44.542969 C 22.476562 45.550781 23.289062 46.367188 24.289062 46.367188 L 26.625 46.367188 C 27.625 46.367188 28.4375 45.550781 28.4375 44.542969 L 28.4375 42.386719 C 28.4375 41.378906 27.625 40.5625 26.625 40.5625 Z M 27.242188 44.542969 C 27.242188 44.886719 26.964844 45.164062 26.625 45.164062 L 24.289062 45.164062 C 23.945312 45.164062 23.671875 44.886719 23.671875 44.542969 L 23.671875 42.386719 C 23.671875 42.042969 23.945312 41.765625 24.289062 41.765625 L 26.625 41.765625 C 26.964844 41.765625 27.242188 42.042969 27.242188 42.386719 Z M 37.460938 40.5625 L 35.121094 40.5625 C 34.125 40.5625 33.3125 41.378906 33.3125 42.386719 L 33.3125 44.542969 C 33.3125 45.550781 34.125 46.367188 35.121094 46.367188 L 37.460938 46.367188 C 38.460938 46.367188 39.273438 45.550781 39.273438 44.542969 L 39.273438 42.386719 C 39.273438 41.378906 38.460938 40.5625 37.460938 40.5625 Z M 38.078125 44.542969 C 38.078125 44.886719 37.800781 45.164062 37.460938 45.164062 L 35.121094 45.164062 C 34.78125 45.164062 34.503906 44.886719 34.503906 44.542969 L 34.503906 42.386719 C 34.503906 42.042969 34.78125 41.765625 35.121094 41.765625 L 37.460938 41.765625 C 37.800781 41.765625 38.078125 42.042969 38.078125 42.386719 Z M 53.996094 20.53125 C 53.996094 14.851562 49.398438 10.226562 43.746094 10.226562 C 41.953125 10.226562 40.261719 10.695312 38.796875 11.511719 C 38.351562 11.132812 37.78125 10.914062 37.191406 10.914062 C 35.832031 10.914062 34.722656 12.027344 34.722656 13.394531 L 34.722656 14.941406 L 31.835938 14.941406 L 31.835938 13.394531 C 31.835938 12.027344 30.730469 10.914062 29.367188 10.914062 C 28.007812 10.914062 26.898438 12.027344 26.898438 13.394531 L 26.898438 14.941406 L 24.011719 14.941406 L 24.011719 13.394531 C 24.011719 12.027344 22.90625 10.914062 21.542969 10.914062 C 20.183594 10.914062 19.074219 12.027344 19.074219 13.394531 L 19.074219 14.941406 L 16.1875 14.941406 L 16.1875 13.394531 C 16.1875 12.027344 15.082031 10.914062 13.71875 10.914062 C 12.359375 10.914062 11.25 12.027344 11.25 13.394531 L 11.25 14.941406 L 10.050781 14.941406 C 7.820312 14.941406 6.003906 16.765625 6.003906 19.007812 L 6.003906 45.90625 C 6.003906 48.148438 7.820312 49.972656 10.050781 49.972656 L 40.859375 49.972656 C 43.09375 49.972656 44.910156 48.148438 44.910156 45.90625 L 44.910156 30.769531 C 50.015625 30.1875 53.996094 25.820312 53.996094 20.53125 Z M 37.191406 12.113281 C 37.367188 12.113281 37.539062 12.152344 37.695312 12.21875 C 37.039062 12.703125 36.441406 13.265625 35.917969 13.886719 L 35.917969 13.394531 C 35.917969 12.6875 36.488281 12.113281 37.191406 12.113281 Z M 28.09375 13.394531 C 28.09375 12.6875 28.664062 12.113281 29.367188 12.113281 C 30.070312 12.113281 30.640625 12.6875 30.640625 13.394531 L 30.640625 14.941406 L 28.09375 14.941406 Z M 20.269531 13.394531 C 20.269531 12.6875 20.839844 12.113281 21.542969 12.113281 C 22.246094 12.113281 22.816406 12.6875 22.816406 13.394531 L 22.816406 14.941406 L 20.269531 14.941406 Z M 12.445312 13.394531 C 12.445312 12.6875 13.015625 12.113281 13.71875 12.113281 C 14.421875 12.113281 14.992188 12.6875 14.992188 13.394531 L 14.992188 14.941406 L 12.445312 14.941406 Z M 10.050781 16.140625 L 11.25 16.140625 L 11.25 17.683594 C 11.25 19.054688 12.355469 20.167969 13.71875 20.167969 C 14.050781 20.167969 14.316406 19.898438 14.316406 19.566406 C 14.316406 19.234375 14.050781 18.964844 13.71875 18.964844 C 13.015625 18.964844 12.445312 18.390625 12.445312 17.683594 L 12.445312 16.140625 L 19.074219 16.140625 L 19.074219 17.683594 C 19.074219 19.054688 20.183594 20.167969 21.542969 20.167969 C 21.875 20.167969 22.140625 19.898438 22.140625 19.566406 C 22.140625 19.234375 21.875 18.964844 21.542969 18.964844 C 20.839844 18.964844 20.269531 18.390625 20.269531 17.683594 L 20.269531 16.140625 L 26.898438 16.140625 L 26.898438 17.683594 C 26.898438 19.054688 28.007812 20.167969 29.367188 20.167969 C 29.699219 20.167969 29.964844 19.898438 29.964844 19.566406 C 29.964844 19.234375 29.699219 18.964844 29.367188 18.964844 C 28.664062 18.964844 28.09375 18.390625 28.09375 17.683594 L 28.09375 16.140625 L 34.476562 16.140625 C 33.847656 17.472656 33.496094 18.960938 33.496094 20.53125 C 33.496094 20.980469 33.523438 21.425781 33.582031 21.859375 L 7.199219 21.859375 L 7.199219 19.007812 C 7.199219 17.425781 8.476562 16.140625 10.050781 16.140625 Z M 40.859375 48.773438 L 10.050781 48.773438 C 8.480469 48.773438 7.199219 47.484375 7.199219 45.90625 L 7.199219 23.0625 L 33.808594 23.0625 C 34.027344 23.925781 34.351562 24.742188 34.769531 25.503906 C 33.9375 25.667969 33.3125 26.40625 33.3125 27.289062 L 33.3125 29.449219 C 33.3125 30.453125 34.125 31.269531 35.121094 31.269531 L 37.460938 31.269531 C 38.34375 31.269531 39.082031 30.628906 39.238281 29.785156 C 40.589844 30.453125 42.109375 30.832031 43.710938 30.835938 L 43.710938 45.90625 C 43.710938 47.484375 42.433594 48.773438 40.859375 48.773438 Z M 35.515625 26.667969 C 36.222656 27.625 37.089844 28.453125 38.078125 29.113281 L 38.078125 29.449219 C 38.078125 29.789062 37.800781 30.070312 37.460938 30.070312 L 35.121094 30.070312 C 34.78125 30.070312 34.503906 29.789062 34.503906 29.449219 L 34.503906 27.289062 C 34.503906 26.945312 34.78125 26.667969 35.121094 26.667969 Z M 43.746094 29.636719 C 38.753906 29.636719 34.691406 25.550781 34.691406 20.53125 C 34.691406 15.511719 38.753906 11.425781 43.746094 11.425781 C 48.738281 11.425781 52.800781 15.511719 52.800781 20.53125 C 52.800781 25.550781 48.738281 29.636719 43.746094 29.636719 Z M 43.746094 12.804688 C 39.507812 12.804688 36.058594 16.269531 36.058594 20.53125 C 36.058594 24.792969 39.507812 28.257812 43.746094 28.257812 C 47.984375 28.257812 51.429688 24.792969 51.429688 20.53125 C 51.429688 16.273438 47.984375 12.804688 43.746094 12.804688 Z M 44.34375 27.027344 L 44.34375 26.503906 C 44.34375 26.171875 44.074219 25.902344 43.746094 25.902344 C 43.414062 25.902344 43.148438 26.171875 43.148438 26.503906 L 43.148438 27.027344 C 40.042969 26.742188 37.566406 24.253906 37.28125 21.132812 L 37.804688 21.132812 C 38.136719 21.132812 38.402344 20.863281 38.402344 20.53125 C 38.402344 20.199219 38.136719 19.929688 37.804688 19.929688 L 37.28125 19.929688 C 37.566406 16.8125 40.042969 14.320312 43.148438 14.035156 L 43.148438 14.558594 C 43.148438 14.890625 43.414062 15.160156 43.746094 15.160156 C 44.074219 15.160156 44.34375 14.890625 44.34375 14.558594 L 44.34375 14.035156 C 47.445312 14.320312 49.925781 16.8125 50.207031 19.929688 L 49.6875 19.929688 C 49.355469 19.929688 49.089844 20.199219 49.089844 20.53125 C 49.089844 20.863281 49.355469 21.132812 49.6875 21.132812 L 50.207031 21.132812 C 49.925781 24.253906 47.445312 26.742188 44.34375 27.027344 Z M 47.003906 20.53125 C 47.003906 20.863281 46.738281 21.132812 46.40625 21.132812 L 43.746094 21.132812 C 43.414062 21.132812 43.148438 20.863281 43.148438 20.53125 L 43.148438 16.804688 C 43.148438 16.472656 43.414062 16.203125 43.746094 16.203125 C 44.074219 16.203125 44.34375 16.472656 44.34375 16.804688 L 44.34375 19.933594 L 46.40625 19.933594 C 46.738281 19.933594 47.003906 20.199219 47.003906 20.53125 Z M 47.003906 20.53125 " fill-opacity="1" fill-rule="nonzero"/></g></svg>