<svg xmlns="http://www.w3.org/2000/svg" xmlns:xlink="http://www.w3.org/1999/xlink" width="80" zoomAndPan="magnify" viewBox="0 0 60 60" height="80" preserveAspectRatio="xMidYMid meet" version="1.0"><defs><clipPath id="da9c403b92"><path d="M 25 43 L 27 43 L 27 49.5 L 25 49.5 Z M 25 43 " clip-rule="nonzero"/></clipPath><clipPath id="271bdb558f"><path d="M 33 43 L 35 43 L 35 49.5 L 33 49.5 Z M 33 43 " clip-rule="nonzero"/></clipPath><clipPath id="44ef3121c9"><path d="M 6 8 L 54 8 L 54 49.5 L 6 49.5 Z M 6 8 " clip-rule="nonzero"/></clipPath><clipPath id="d0b906ab06"><path d="M 43 44 L 46 44 L 46 49.5 L 43 49.5 Z M 43 44 " clip-rule="nonzero"/></clipPath><clipPath id="55202c34cb"><path d="M 14 44 L 17 44 L 17 49.5 L 14 49.5 Z M 14 44 " clip-rule="nonzero"/></clipPath></defs><g clip-path="url(#da9c403b92)"><path fill="#100f0d" d="M 26.109375 43.117188 C 25.761719 43.117188 25.480469 43.398438 25.480469 43.746094 L 25.480469 48.875 C 25.480469 49.21875 25.761719 49.5 26.109375 49.5 C 26.453125 49.5 26.734375 49.21875 26.734375 48.875 L 26.734375 43.746094 C 26.734375 43.398438 26.453125 43.117188 26.109375 43.117188 " fill-opacity="1" fill-rule="nonzero"/></g><g clip-path="url(#271bdb558f)"><path fill="#100f0d" d="M 33.878906 43.117188 C 33.53125 43.117188 33.25 43.398438 33.25 43.746094 L 33.25 48.875 C 33.25 49.21875 33.53125 49.5 33.878906 49.5 C 34.226562 49.5 34.507812 49.21875 34.507812 48.875 L 34.507812 43.746094 C 34.507812 43.398438 34.226562 43.117188 33.878906 43.117188 " fill-opacity="1" fill-rule="nonzero"/></g><g clip-path="url(#44ef3121c9)"><path fill="#100f0d" d="M 37.320312 42.089844 C 36.398438 40.371094 34.84375 39.039062 32.964844 38.402344 C 34.59375 37.40625 35.679688 35.617188 35.679688 33.578125 C 35.679688 30.457031 33.128906 27.914062 29.992188 27.914062 C 26.859375 27.914062 24.308594 30.457031 24.308594 33.578125 C 24.308594 35.617188 25.394531 37.40625 27.019531 38.402344 C 25.144531 39.039062 23.589844 40.371094 22.664062 42.089844 C 22.144531 41.625 21.550781 41.257812 20.90625 41.003906 C 22.019531 40.203125 22.746094 38.902344 22.746094 37.4375 C 22.746094 35.015625 20.769531 33.042969 18.335938 33.042969 C 16.507812 33.042969 14.9375 34.15625 14.269531 35.738281 C 9.457031 30.167969 7.378906 24.28125 8.421875 19.066406 C 9.171875 15.304688 11.503906 12.183594 14.652344 10.710938 C 22.644531 6.976562 29.253906 14.03125 29.53125 14.335938 C 29.769531 14.59375 30.21875 14.59375 30.457031 14.335938 C 30.734375 14.03125 37.34375 6.976562 45.332031 10.710938 C 48.476562 12.179688 50.804688 15.296875 51.5625 19.046875 C 52.613281 24.261719 50.539062 30.164062 45.71875 35.742188 C 45.050781 34.160156 43.480469 33.042969 41.648438 33.042969 C 39.21875 33.042969 37.238281 35.015625 37.238281 37.4375 C 37.238281 38.902344 37.964844 40.203125 39.078125 41.003906 C 38.4375 41.257812 37.84375 41.625 37.320312 42.089844 Z M 29.992188 37.988281 C 27.550781 37.988281 25.5625 36.011719 25.5625 33.578125 C 25.5625 31.144531 27.550781 29.167969 29.992188 29.167969 C 32.4375 29.167969 34.421875 31.144531 34.421875 33.578125 C 34.421875 36.011719 32.4375 37.988281 29.992188 37.988281 Z M 15.183594 37.4375 C 15.183594 35.703125 16.597656 34.296875 18.335938 34.296875 C 20.074219 34.296875 21.488281 35.703125 21.488281 37.4375 C 21.488281 39.167969 20.074219 40.578125 18.335938 40.578125 C 16.597656 40.578125 15.183594 39.167969 15.183594 37.4375 Z M 41.648438 40.578125 C 39.910156 40.578125 38.496094 39.167969 38.496094 37.4375 C 38.496094 35.703125 39.910156 34.296875 41.648438 34.296875 C 43.390625 34.296875 44.804688 35.703125 44.804688 37.4375 C 44.804688 39.167969 43.390625 40.578125 41.648438 40.578125 Z M 44.21875 41.003906 C 45.332031 40.207031 46.058594 38.90625 46.058594 37.4375 C 46.058594 37.375 46.058594 37.3125 46.054688 37.253906 C 51.574219 31.179688 53.964844 24.625 52.792969 18.800781 C 51.960938 14.660156 49.371094 11.214844 45.867188 9.578125 C 38.203125 6 31.753906 11.34375 29.992188 13.023438 C 28.234375 11.34375 21.78125 5.996094 14.121094 9.578125 C 10.609375 11.21875 8.019531 14.675781 7.1875 18.824219 C 6.027344 24.644531 8.421875 31.183594 13.929688 37.253906 C 13.929688 37.3125 13.925781 37.375 13.925781 37.4375 C 13.925781 38.90625 14.652344 40.207031 15.769531 41.003906 C 13.570312 41.882812 12.011719 44.027344 12.011719 46.527344 L 12.011719 48.875 C 12.011719 49.21875 12.292969 49.5 12.640625 49.5 C 12.988281 49.5 13.269531 49.21875 13.269531 48.875 L 13.269531 46.527344 C 13.269531 43.9375 15.382812 41.828125 17.984375 41.828125 L 18.6875 41.828125 C 20.003906 41.828125 21.246094 42.371094 22.136719 43.320312 C 21.886719 44.082031 21.746094 44.890625 21.746094 45.734375 L 21.746094 48.875 C 21.746094 49.21875 22.027344 49.5 22.375 49.5 C 22.722656 49.5 23.003906 49.21875 23.003906 48.875 L 23.003906 45.734375 C 23.003906 42.152344 25.929688 39.242188 29.523438 39.242188 L 30.464844 39.242188 C 34.058594 39.242188 36.980469 42.152344 36.980469 45.734375 L 36.980469 48.875 C 36.980469 49.21875 37.265625 49.5 37.609375 49.5 C 37.957031 49.5 38.238281 49.21875 38.238281 48.875 L 38.238281 45.734375 C 38.238281 44.890625 38.101562 44.082031 37.851562 43.320312 C 38.742188 42.371094 39.984375 41.828125 41.296875 41.828125 L 42 41.828125 C 44.601562 41.828125 46.71875 43.9375 46.71875 46.527344 L 46.71875 48.875 C 46.71875 49.21875 47 49.5 47.347656 49.5 C 47.691406 49.5 47.972656 49.21875 47.972656 48.875 L 47.972656 46.527344 C 47.972656 44.027344 46.417969 41.882812 44.21875 41.003906 " fill-opacity="1" fill-rule="nonzero"/></g><g clip-path="url(#d0b906ab06)"><path fill="#100f0d" d="M 44.554688 44.414062 C 44.207031 44.414062 43.925781 44.691406 43.925781 45.039062 L 43.925781 48.875 C 43.925781 49.21875 44.207031 49.5 44.554688 49.5 C 44.902344 49.5 45.183594 49.21875 45.183594 48.875 L 45.183594 45.039062 C 45.183594 44.691406 44.902344 44.414062 44.554688 44.414062 " fill-opacity="1" fill-rule="nonzero"/></g><g clip-path="url(#55202c34cb)"><path fill="#100f0d" d="M 15.429688 44.414062 C 15.085938 44.414062 14.804688 44.691406 14.804688 45.039062 L 14.804688 48.875 C 14.804688 49.21875 15.085938 49.5 15.429688 49.5 C 15.777344 49.5 16.058594 49.21875 16.058594 48.875 L 16.058594 45.039062 C 16.058594 44.691406 15.777344 44.414062 15.429688 44.414062 " fill-opacity="1" fill-rule="nonzero"/></g></svg>