<svg xmlns="http://www.w3.org/2000/svg" xmlns:xlink="http://www.w3.org/1999/xlink" width="80" zoomAndPan="magnify" viewBox="0 0 60 60" height="80" preserveAspectRatio="xMidYMid meet" version="1.0"><defs><clipPath id="3d344e3f7c"><path d="M 6 7.308594 L 54 7.308594 L 54 53.058594 L 6 53.058594 Z M 6 7.308594 " clip-rule="nonzero"/></clipPath></defs><g clip-path="url(#3d344e3f7c)"><path fill="#000000" d="M 24.121094 9.003906 C 20.871094 9.003906 18.238281 11.660156 18.238281 14.933594 C 18.238281 16.429688 18.789062 17.796875 19.695312 18.839844 C 19.703125 18.847656 19.707031 18.855469 19.710938 18.859375 L 28.0625 29.03125 C 29.070312 30.257812 30.9375 30.257812 31.945312 29.03125 L 40.253906 18.90625 C 40.261719 18.898438 40.265625 18.890625 40.273438 18.882812 C 41.203125 17.832031 41.765625 16.449219 41.765625 14.933594 C 41.765625 11.660156 39.132812 9.003906 35.886719 9.003906 C 33.671875 9.003906 31.742188 10.234375 30.738281 12.0625 C 30.589844 12.332031 30.308594 12.496094 30.003906 12.496094 C 29.699219 12.496094 29.417969 12.332031 29.269531 12.0625 C 28.265625 10.234375 26.335938 9.003906 24.121094 9.003906 Z M 16.558594 14.933594 C 16.558594 10.722656 19.945312 7.308594 24.121094 7.308594 C 26.5 7.308594 28.617188 8.414062 30.003906 10.140625 C 31.390625 8.414062 33.507812 7.308594 35.886719 7.308594 C 40.0625 7.308594 43.449219 10.722656 43.449219 14.933594 C 43.449219 16.878906 42.726562 18.652344 41.539062 20 L 33.238281 30.109375 C 31.558594 32.15625 28.445312 32.160156 26.765625 30.109375 L 18.425781 19.949219 C 17.261719 18.609375 16.558594 16.855469 16.558594 14.933594 Z M 42.507812 37.3125 C 41.996094 36.453125 40.851562 36.246094 40.074219 36.871094 L 35.152344 40.84375 C 34.554688 41.324219 34.203125 42.054688 34.203125 42.828125 L 34.203125 47.128906 L 43.039062 47.128906 L 51.664062 36.0625 C 51.8125 35.871094 51.910156 35.644531 51.941406 35.402344 C 52.117188 34.179688 50.738281 33.355469 49.757812 34.097656 L 44.421875 38.132812 C 44.433594 39.074219 44.046875 40.007812 43.308594 40.667969 L 41.066406 42.679688 C 40.71875 42.988281 40.1875 42.957031 39.878906 42.609375 C 39.570312 42.257812 39.601562 41.722656 39.949219 41.410156 L 42.191406 39.402344 C 42.78125 38.871094 42.914062 37.996094 42.507812 37.3125 Z M 32.523438 42.828125 L 32.523438 47.128906 C 31.597656 47.128906 30.84375 47.886719 30.84375 48.824219 L 30.84375 51.363281 C 30.84375 52.300781 31.597656 53.058594 32.523438 53.058594 L 45.128906 53.058594 C 46.058594 53.058594 46.808594 52.300781 46.808594 51.363281 L 46.808594 48.824219 C 46.808594 47.902344 46.082031 47.15625 45.175781 47.128906 L 52.984375 37.109375 C 53.316406 36.683594 53.53125 36.175781 53.605469 35.640625 C 53.992188 32.925781 50.925781 31.09375 48.75 32.742188 L 43.921875 36.394531 C 42.871094 34.691406 40.582031 34.292969 39.023438 35.546875 L 34.101562 39.519531 C 33.105469 40.324219 32.523438 41.539062 32.523438 42.828125 Z M 19.933594 36.871094 C 19.15625 36.246094 18.011719 36.453125 17.5 37.3125 C 17.09375 37.996094 17.226562 38.871094 17.816406 39.402344 L 20.058594 41.410156 C 20.40625 41.722656 20.4375 42.257812 20.128906 42.609375 C 19.820312 42.957031 19.289062 42.988281 18.941406 42.679688 L 16.699219 40.667969 C 15.960938 40.007812 15.574219 39.074219 15.582031 38.132812 L 10.25 34.097656 C 9.269531 33.355469 7.890625 34.179688 8.0625 35.402344 C 8.097656 35.644531 8.195312 35.871094 8.34375 36.0625 L 16.96875 47.128906 L 25.800781 47.128906 L 25.800781 42.828125 C 25.800781 42.054688 25.453125 41.324219 24.855469 40.84375 Z M 27.484375 47.128906 L 27.484375 42.828125 C 27.484375 41.539062 26.902344 40.324219 25.90625 39.519531 L 20.984375 35.546875 C 19.425781 34.292969 17.136719 34.691406 16.085938 36.394531 L 11.257812 32.742188 C 9.082031 31.09375 6.015625 32.925781 6.398438 35.640625 C 6.476562 36.175781 6.691406 36.683594 7.023438 37.109375 L 14.832031 47.128906 C 13.925781 47.15625 13.199219 47.902344 13.199219 48.824219 L 13.199219 51.363281 C 13.199219 52.300781 13.949219 53.058594 14.878906 53.058594 L 27.484375 53.058594 C 28.410156 53.058594 29.164062 52.300781 29.164062 51.363281 L 29.164062 48.824219 C 29.164062 47.886719 28.410156 47.128906 27.484375 47.128906 Z M 45.128906 48.824219 L 32.523438 48.824219 L 32.523438 51.363281 L 45.128906 51.363281 Z M 27.484375 48.824219 L 14.878906 48.824219 L 14.878906 51.363281 L 27.484375 51.363281 Z M 27.484375 48.824219 " fill-opacity="1" fill-rule="evenodd"/></g></svg>